HIERARCHY
ROOT ding_shaowen:Solving:Hips
{
	OFFSET 0.000000 0.000000 0.000000
	CHANNELS 6 Xposition Yposition Zposition Xrotation Yrotation Zrotation
	JOINT ding_shaowen:Solving:Spine
	{
		OFFSET 0.000000 -12.793800 2.116599
		CHANNELS 6 Xposition Yposition Zposition Xrotation Yrotation Zrotation
		JOINT ding_shaowen:Solving:Spine1
		{
			OFFSET 0.000000 -8.721180 1.537782
			CHANNELS 6 Xposition Yposition Zposition Xrotation Yrotation Zrotation
			JOINT ding_shaowen:Solving:Spine2
			{
				OFFSET 0.000000 -8.822016 0.771827
				CHANNELS 6 Xposition Yposition Zposition Xrotation Yrotation Zrotation
				JOINT ding_shaowen:Solving:Spine3
				{
					OFFSET 0.000000 -8.855719 0.000000
					CHANNELS 6 Xposition Yposition Zposition Xrotation Yrotation Zrotation
					JOINT ding_shaowen:Solving:Neck
					{
						OFFSET 0.000000 -11.385921 -1.138590
						CHANNELS 6 Xposition Yposition Zposition Xrotation Yrotation Zrotation
						JOINT ding_shaowen:Solving:Neck1
						{
							OFFSET 0.000000 -6.705494 -0.586653
							CHANNELS 6 Xposition Yposition Zposition Xrotation Yrotation Zrotation
							JOINT ding_shaowen:Solving:Head
							{
								OFFSET 0.000000 -6.628845 -1.168845
								CHANNELS 6 Xposition Yposition Zposition Xrotation Yrotation Zrotation
								JOINT ding_shaowen:Solving:HeadEnd
								{
									OFFSET 0.000000 -9.728077 0.000002
									CHANNELS 6 Xposition Yposition Zposition Xrotation Yrotation Zrotation
									End Site
									{
										OFFSET 0.000000 -9.728081 0.000002
									}
								}
							}
						}
					}
					JOINT ding_shaowen:Solving:RightShoulder
					{
						OFFSET 0.000000 -8.132801 -5.345683
						CHANNELS 6 Xposition Yposition Zposition Xrotation Yrotation Zrotation
						JOINT ding_shaowen:Solving:RightArm
						{
							OFFSET -20.692947 -0.000008 0.000000
							CHANNELS 6 Xposition Yposition Zposition Xrotation Yrotation Zrotation
							JOINT ding_shaowen:Solving:RightForeArm
							{
								OFFSET -30.243591 -0.000008 0.000000
								CHANNELS 6 Xposition Yposition Zposition Xrotation Yrotation Zrotation
								JOINT ding_shaowen:Solving:RightHand
								{
									OFFSET -24.757149 -0.000008 0.000000
									CHANNELS 6 Xposition Yposition Zposition Xrotation Yrotation Zrotation
									JOINT ding_shaowen:Solving:RightHandThumb1
									{
										OFFSET -3.599983 2.820858 -2.676913
										CHANNELS 6 Xposition Yposition Zposition Xrotation Yrotation Zrotation
										End Site
										{
											OFFSET -5.243469 0.000000 -5.291954
										}
									}
									JOINT ding_shaowen:Solving:RightHandMiddle1
									{
										OFFSET -9.599960 -0.000004 0.061538
										CHANNELS 6 Xposition Yposition Zposition Xrotation Yrotation Zrotation
										End Site
										{
											OFFSET -7.449745 -0.000004 0.000000
										}
									}
								}
							}
						}
					}
					JOINT ding_shaowen:Solving:LeftShoulder
					{
						OFFSET 0.000000 -8.132801 -5.345683
						CHANNELS 6 Xposition Yposition Zposition Xrotation Yrotation Zrotation
						JOINT ding_shaowen:Solving:LeftArm
						{
							OFFSET 20.692947 -0.000008 0.000000
							CHANNELS 6 Xposition Yposition Zposition Xrotation Yrotation Zrotation
							JOINT ding_shaowen:Solving:LeftForeArm
							{
								OFFSET 30.243591 -0.000008 0.000000
								CHANNELS 6 Xposition Yposition Zposition Xrotation Yrotation Zrotation
								JOINT ding_shaowen:Solving:LeftHand
								{
									OFFSET 24.757149 -0.000008 0.000000
									CHANNELS 6 Xposition Yposition Zposition Xrotation Yrotation Zrotation
									JOINT ding_shaowen:Solving:LeftHandThumb1
									{
										OFFSET 3.599983 2.820858 -2.676913
										CHANNELS 6 Xposition Yposition Zposition Xrotation Yrotation Zrotation
										End Site
										{
											OFFSET 5.243469 0.000000 -5.291954
										}
									}
									JOINT ding_shaowen:Solving:LeftHandMiddle1
									{
										OFFSET 9.599960 -0.000004 0.061538
										CHANNELS 6 Xposition Yposition Zposition Xrotation Yrotation Zrotation
										End Site
										{
											OFFSET 7.449745 -0.000004 0.000000
										}
									}
								}
							}
						}
					}
				}
			}
		}
	}
	JOINT ding_shaowen:Solving:RightUpLeg
	{
		OFFSET -11.038935 0.000000 0.000000
		CHANNELS 6 Xposition Yposition Zposition Xrotation Yrotation Zrotation
		JOINT ding_shaowen:Solving:RightLeg
		{
			OFFSET 0.000000 45.093018 -0.000006
			CHANNELS 6 Xposition Yposition Zposition Xrotation Yrotation Zrotation
			JOINT ding_shaowen:Solving:RightFoot
			{
				OFFSET 0.000000 38.174210 -0.000006
				CHANNELS 6 Xposition Yposition Zposition Xrotation Yrotation Zrotation
				JOINT ding_shaowen:Solving:RightForeFoot
				{
					OFFSET 0.000000 3.459915 -0.000000
					CHANNELS 6 Xposition Yposition Zposition Xrotation Yrotation Zrotation
					JOINT ding_shaowen:Solving:RightToeBase
					{
						OFFSET 0.000000 0.000000 -13.550137
						CHANNELS 6 Xposition Yposition Zposition Xrotation Yrotation Zrotation
						JOINT ding_shaowen:Solving:RightToeBaseEnd
						{
							OFFSET 0.000000 0.000000 -3.436555
							CHANNELS 6 Xposition Yposition Zposition Xrotation Yrotation Zrotation
							End Site
							{
								OFFSET 0.000000 -3.436554 0.000000
							}
						}
					}
				}
			}
		}
	}
	JOINT ding_shaowen:Solving:LeftUpLeg
	{
		OFFSET 11.038935 0.000000 0.000000
		CHANNELS 6 Xposition Yposition Zposition Xrotation Yrotation Zrotation
		JOINT ding_shaowen:Solving:LeftLeg
		{
			OFFSET 0.000000 45.093018 -0.000006
			CHANNELS 6 Xposition Yposition Zposition Xrotation Yrotation Zrotation
			JOINT ding_shaowen:Solving:LeftFoot
			{
				OFFSET 0.000000 38.174210 -0.000006
				CHANNELS 6 Xposition Yposition Zposition Xrotation Yrotation Zrotation
				JOINT ding_shaowen:Solving:LeftForeFoot
				{
					OFFSET 0.000000 3.459915 -0.000000
					CHANNELS 6 Xposition Yposition Zposition Xrotation Yrotation Zrotation
					JOINT ding_shaowen:Solving:LeftToeBase
					{
						OFFSET 0.000000 0.000000 -13.550137
						CHANNELS 6 Xposition Yposition Zposition Xrotation Yrotation Zrotation
						JOINT ding_shaowen:Solving:LeftToeBaseEnd
						{
							OFFSET 0.000000 0.000000 -4.223781
							CHANNELS 6 Xposition Yposition Zposition Xrotation Yrotation Zrotation
							End Site
							{
								OFFSET 0.000000 -4.223778 0.000000
							}
						}
					}
				}
			}
		}
	}
}
MOTION
Frames: 4
Frame Time: 0.041667
14.272513 -64.420227 -94.910530 85.016765 -14.915021 -0.077628 -0.000002 -12.793797 2.116596 12.031665 -1.025663 -3.052465 -0.000002 -8.721183 1.537766 -1.424848 -0.103480 -0.883207 -0.000003 -8.822017 0.771823 -4.974855 -5.842458 -0.963502 0.000003 -8.855700 0.000008 -0.838049 -1.265944 0.258094 -0.000010 -11.385893 -1.138594 3.518515 3.375925 -0.134353 0.000000 -6.705497 -0.586643 0.380059 14.750854 0.739629 0.000000 -6.628824 -1.168836 6.793123 1.281237 -1.106175 -0.000003 -9.728077 0.000013 0.000002 0.000000 0.000000 -0.000003 -8.132778 -5.345676 -0.000002 12.813877 3.096196 -20.692955 -0.000001 -0.000003 -40.229951 3.442561 -96.720403 -30.243595 -0.000017 0.000011 138.391544 -87.014377 138.430927 -24.757158 -0.000004 0.000021 -9.904561 9.635077 46.212947 -3.600013 2.820828 -2.676906 -0.000006 -0.000000 0.000001 -9.599948 -0.000004 0.061525 -0.000005 0.000002 -0.000003 -0.000003 -8.132778 -5.345675 0.000000 -16.170642 -5.080246 20.692945 -0.000028 0.000004 -8.099773 35.140849 92.232573 30.243582 -0.000004 -0.000003 -186.126125 -10.487305 -1.119136 24.757147 -0.000012 0.000015 -180.262435 1.082482 13.629740 3.600021 2.820861 -2.676922 -0.000002 -0.000005 -0.000001 9.599971 0.000007 0.061531 0.000001 -0.000004 -0.000005 -11.038934 -0.000008 -0.000003 7.990991 19.423268 4.328655 0.000001 45.093006 -0.000005 -1.407891 -0.000002 -0.000001 -0.000000 38.174221 -0.000014 14.369904 6.336633 2.562092 -0.000000 3.459915 -0.000005 -0.000001 -0.000001 -0.000002 0.000004 0.000015 -13.550134 -19.224534 -0.000005 -0.000000 0.000000 -0.000008 -3.436556 0.000000 -0.000004 -0.000001 11.038939 0.000000 -0.000001 7.810017 -3.486723 -6.624563 0.000002 45.093014 0.000001 -5.631108 -0.000006 0.000000 0.000000 38.174198 -0.000014 18.744648 -10.419412 2.176415 0.000012 3.459915 0.000004 0.000003 -0.000001 -0.000001 -0.000007 0.000002 -13.550147 2.195893 0.000005 -0.000000 -0.000007 -0.000001 -4.223792 -0.000003 0.000001 -0.000000 
14.263031 -64.420380 -94.920555 85.086781 -14.920990 -0.051356 -0.000006 -12.793793 2.116606 12.045614 -1.032651 -3.074366 -0.000001 -8.721189 1.537784 -1.447740 -0.106842 -0.878664 0.000004 -8.822035 0.771823 -5.022889 -5.846781 -0.971966 0.000002 -8.855697 0.000010 -0.875410 -1.289376 0.206258 0.000010 -11.385907 -1.138602 3.607074 3.366381 -0.093662 0.000004 -6.705483 -0.586645 0.287385 14.563915 0.764070 0.000002 -6.628856 -1.168850 6.670815 1.258254 -1.087075 -0.000003 -9.728046 0.000004 0.000001 0.000001 -0.000000 0.000014 -8.132816 -5.345692 0.000002 12.953332 3.050417 -20.692951 -0.000048 0.000003 -39.936642 3.844368 -96.628059 -30.243597 -0.000006 0.000002 131.835232 -86.525007 131.888098 -24.757154 -0.000005 0.000024 -10.054697 10.064992 45.414908 -3.600014 2.820865 -2.676928 -0.000002 -0.000005 -0.000001 -9.599958 0.000007 0.061531 -0.000006 0.000003 0.000003 0.000012 -8.132812 -5.345692 0.000003 -16.147259 -5.046931 20.692959 -0.000013 0.000004 -8.255097 34.242631 92.382762 30.243567 -0.000014 0.000004 -184.789293 -10.069942 -0.839248 24.757172 -0.000010 0.000006 -180.344984 1.380575 14.031556 3.600006 2.820854 -2.676913 -0.000005 0.000010 0.000001 9.599954 0.000005 0.061534 -0.000000 0.000003 0.000001 -11.038940 0.000000 0.000005 7.925767 19.414789 4.312690 0.000000 45.093033 -0.000001 -1.407748 -0.000001 -0.000001 0.000000 38.174210 -0.000032 14.409742 6.346142 2.593478 0.000001 3.459915 0.000001 -0.000001 0.000003 -0.000001 0.000002 0.000011 -13.550122 -19.223313 -0.000003 0.000001 0.000004 0.000001 -3.436564 0.000001 -0.000006 -0.000002 11.038930 0.000009 0.000007 7.727877 -3.474976 -6.637498 0.000004 45.093014 0.000001 -5.609383 -0.000001 0.000001 0.000007 38.174206 -0.000011 18.783131 -10.416715 2.158998 -0.000001 3.459915 -0.000003 0.000000 -0.000003 -0.000001 0.000016 -0.000005 -13.550130 2.175752 -0.000000 -0.000000 0.000001 -0.000001 -4.223769 -0.000002 -0.000000 -0.000001 
14.256636 -64.404579 -94.914658 85.056653 -14.927735 -0.060276 0.000003 -12.793792 2.116608 12.027608 -1.028919 -3.136647 0.000001 -8.721171 1.537779 -1.439803 -0.096327 -0.894399 -0.000003 -8.822003 0.771812 -4.991559 -5.742704 -0.953838 0.000000 -8.855697 0.000010 -0.846733 -1.210414 0.287395 0.000007 -11.385965 -1.138586 3.554089 3.270938 -0.200419 0.000002 -6.705524 -0.586655 0.343268 14.710117 0.746422 0.000001 -6.628869 -1.168846 6.746212 1.276085 -1.110586 -0.000004 -9.728054 0.000006 -0.000002 0.000000 0.000000 0.000001 -8.132793 -5.345689 -0.000002 12.750481 3.014166 -20.692955 -0.000000 0.000002 -39.630725 4.496445 -96.694783 -30.243601 -0.000005 0.000022 123.615195 -85.610704 123.693073 -24.757174 -0.000011 0.000019 -10.613761 10.952542 44.605408 -3.599987 2.820843 -2.676893 -0.000005 0.000002 -0.000004 -9.599945 -0.000006 0.061568 0.000000 -0.000001 -0.000000 0.000001 -8.132812 -5.345689 -0.000001 -16.261055 -5.134591 20.692947 -0.000029 0.000013 -8.281808 34.305790 92.379053 30.243578 0.000005 0.000008 -185.091078 -10.088426 -0.894019 24.757153 -0.000023 -0.000013 -180.336105 1.337241 14.109468 3.599979 2.820858 -2.676917 0.000001 -0.000002 0.000005 9.599890 0.000017 0.061540 -0.000000 0.000002 -0.000002 -11.038932 0.000004 0.000001 7.976146 19.412791 4.303608 -0.000002 45.093021 -0.000006 -1.419816 0.000000 -0.000001 -0.000000 38.174221 -0.000017 14.378802 6.349633 2.582926 -0.000000 3.459931 0.000010 0.000000 -0.000000 -0.000003 0.000002 -0.000003 -13.550141 -19.199981 -0.000005 -0.000001 0.000000 0.000008 -3.436554 0.000000 -0.000004 -0.000002 11.038935 0.000024 0.000007 7.765965 -3.478037 -6.643635 -0.000000 45.093025 -0.000007 -5.612583 0.000002 0.000000 0.000010 38.174210 -0.000003 18.761666 -10.415048 2.200741 -0.000007 3.459915 -0.000008 0.000002 0.000001 -0.000000 -0.000004 -0.000001 -13.550139 2.178186 0.000007 0.000001 -0.000005 0.000015 -4.223776 -0.000002 -0.000002 -0.000001 
14.250872 -64.402573 -94.920975 85.103508 -14.925323 -0.054227 -0.000006 -12.793799 2.116574 12.032768 -1.036448 -3.132426 -0.000006 -8.721182 1.537790 -1.453501 -0.102779 -0.889325 -0.000000 -8.822014 0.771831 -5.022838 -5.782261 -0.972616 0.000011 -8.855747 0.000009 -0.876129 -1.260533 0.194021 -0.000003 -11.385918 -1.138605 3.618228 3.357457 -0.135275 0.000003 -6.705488 -0.586673 0.282590 14.597335 0.753514 -0.000002 -6.628858 -1.168843 6.685842 1.263765 -1.111285 -0.000002 -9.728100 0.000009 -0.000001 0.000000 0.000000 -0.000003 -8.132767 -5.345697 0.000001 12.958268 3.020806 -20.692949 -0.000031 -0.000011 -39.535167 4.660859 -96.660468 -30.243601 -0.000013 0.000029 133.986482 -86.619680 134.036848 -24.757154 -0.000013 0.000033 -10.066568 10.282133 44.844355 -3.600006 2.820842 -2.676877 0.000001 -0.000003 -0.000000 -9.599964 -0.000005 0.061563 0.000008 -0.000002 0.000005 -0.000001 -8.132801 -5.345697 0.000003 -16.175879 -5.058151 20.692951 0.000007 0.000009 -8.238888 34.363802 92.383793 30.243568 -0.000008 -0.000008 -185.447545 -10.090615 -0.957183 24.757170 -0.000027 0.000015 -180.317773 1.257981 14.178043 3.600022 2.820840 -2.676919 0.000002 0.000003 0.000001 9.599982 -0.000002 0.061546 0.000000 0.000007 -0.000001 -11.038936 -0.000003 -0.000014 7.924966 19.409989 4.306422 -0.000000 45.093033 -0.000002 -1.411622 -0.000000 -0.000001 -0.000001 38.174202 -0.000020 14.391641 6.352718 2.607476 0.000005 3.459916 -0.000003 0.000002 -0.000000 -0.000003 0.000005 0.000004 -13.550139 -19.204696 -0.000004 -0.000000 0.000001 0.000001 -3.436550 0.000000 -0.000003 -0.000003 11.038937 0.000001 -0.000009 7.713421 -3.485980 -6.639725 0.000000 45.093006 -0.000029 -5.602574 -0.000004 -0.000001 0.000009 38.174217 -0.000023 18.794194 -10.406324 2.159847 -0.000001 3.459915 0.000001 0.000001 0.000000 -0.000001 -0.000005 -0.000004 -13.550130 2.143729 0.000001 -0.000002 -0.000002 -0.000007 -4.223783 0.000002 -0.000001 0.000001 
